<svg xmlns="http://www.w3.org/2000/svg" version="1.1" x="0" y="0" viewBox="0 0 500 123.6" enable-background="new 0 0 500 123.6" xml:space="preserve"><style>.s0{stop-color:#000000;}.s1{stop-color:#FFFFFF;}</style><g><g><g><polygon fill="#0074BC" points="126.9 108.9 156.8 108.9 107.9 0 78 0 "/><linearGradient gradientUnits="userSpaceOnUse" x1="91.1" y1="-8" x2="147.4" y2="125.8"><stop offset="0" stop-color="#000000"/><stop offset="1" stop-color="#FFFFFF"/></linearGradient><polygon opacity="0.5" fill="url(#SVGID_1_)" points="126.9 108.9 156.8 108.9 107.9 0 78 0 "/><polygon fill="#E8B441" points="36.9 92 78 0 107.9 0 68.1 89.2 "/><path fill="#006227" d="M12.9 83C10 83.6 0 85.5 0 98.6c0 12.1 9.2 25 26.7 25 23.8 0 35.6-21.8 40.5-32.2 0 0 79.2-10.5 81.1-10.8 2.1-0.4 4-0.8 5.7-1.3 9.5-2.9 19.6-13.5 19.6-29.2 0 0-2.6 1.8-39.1 8.8C110.5 63.5 19.4 81.7 12.9 83zM12 98.6l23.3-3.1c-4.8 10.2-10.4 13.4-14.9 13.4C15.3 108.9 10.8 104.1 12 98.6z"/><linearGradient gradientUnits="userSpaceOnUse" x1="50.3" y1="89" x2="37.3" y2="111.2"><stop offset="0" stop-color="#000000"/><stop offset="1" stop-color="#FFFFFF"/></linearGradient><path opacity="0.4" fill="url(#SVGID_2_)" d="M35.3 95.5c-4.8 10.2-10.4 13.4-14.9 13.4L13 120.4c3.8 2 8.3 3.2 13.7 3.2 23.8 0 35.6-21.8 40.5-32.2L35.3 95.5z"/></g></g></g><g><g><polygon fill="#004E7B" points="355.9 42.6 343.6 42.6 336.5 52.4 329.5 42.6 317 42.6 330 59.3 316.8 76 329.1 76 336.4 66 343.5 76 356 76 342.9 59 "/><polygon fill="#004E7B" points="395.1 67.4 395.1 31.5 383.7 31.5 383.7 76 413.7 76 413.7 76 409.9 67.4 "/><path fill="#004E7B" d="M220.3 31.6l-19.9 44.6H212l3.2-7.1 20.7-2.8 4.4 9.9h11.5l-19.9-44.6H220.3zM219.3 60l-0.2 0.3 7-15.7 5.7 12.9L219.3 60z"/><path fill="#004E7B" d="M485.7 68.1c-2.1 0.8-4.3 1.2-6.6 1.2 -7.1 0-9.8-3.8-10.3-4.8l23.1-3.2 0 0h0v-3.7c0-9.1-6.9-16-16.4-16 -11.8 0-18.3 8.9-18.3 17.9 0 12.1 9.5 17.4 20.8 17.4 2.6 0 5-0.2 7.1-0.7s4.4-1.1 6.8-2.1l-3.3-7.3C487.8 67.3 486.8 67.7 485.7 68.1zM468 56.4c0-3 2.5-7.2 7.3-7.2 4.9 0 6.3 4 6.5 5.7l-13.8 3V56.4z"/><path fill="#004E7B" d="M444.1 68.1c-2.1 0.8-4.3 1.2-6.6 1.2 -7.1 0-9.8-3.8-10.3-4.8l23.1-3.2 0 0h0v-3.7c0-9.1-6.9-16-16.4-16 -11.8 0-18.3 8.9-18.3 17.9 0 12.1 9.5 17.4 20.8 17.4 2.6 0 5-0.2 7.1-0.7s4.4-1.1 6.8-2.1l-3.3-7.3C446.2 67.3 445.3 67.7 444.1 68.1zM426.5 56.4c0-3 2.5-7.2 7.3-7.2 4.9 0 6.3 4 6.5 5.7l-13.8 3V56.4z"/><path fill="#004E7B" d="M306.3 68.1c-2.1 0.8-4.3 1.2-6.6 1.2 -7.1 0-9.8-3.8-10.3-4.8l23.1-3.2 0 0h0v-3.7c0-9.1-6.9-16-16.4-16 -11.8 0-18.3 8.9-18.3 17.9 0 12.1 9.5 17.4 20.8 17.4 2.6 0 5-0.2 7.1-0.7s4.4-1.1 6.8-2.1l-3.3-7.3C308.4 67.3 307.4 67.7 306.3 68.1zM288.6 56.4c0-3 2.5-7.2 7.3-7.2 4.9 0 6.3 4 6.5 5.7l-13.8 3V56.4z"/><path fill="#004E7B" d="M269.8 69.1c-1.8 0-2.8-1.1-2.8-3.4V31.5h-10.7v36.7c0 2.8 0.8 4.9 2.3 6.4 1.5 1.5 3.8 2.2 6.6 2.2 1.4 0 2.9-0.2 4.6-0.5 1.6-0.3 3-0.8 4.3-1.4l-2.8-6.1C270.7 69 270.2 69.1 269.8 69.1z"/></g><path fill="#004E7B" d="M499.8 43.3c-0.1-0.3-0.3-0.6-0.6-0.9 -0.3-0.3-0.6-0.5-0.9-0.6 -0.3-0.1-0.7-0.2-1.1-0.2 -0.4 0-0.8 0.1-1.1 0.2 -0.3 0.1-0.6 0.4-0.9 0.6 -0.3 0.3-0.5 0.6-0.6 0.9 -0.1 0.3-0.2 0.7-0.2 1.1 0 0.4 0.1 0.8 0.2 1.1 0.1 0.3 0.4 0.6 0.6 0.9 0.3 0.3 0.6 0.5 0.9 0.6 0.3 0.1 0.7 0.2 1.1 0.2 0.4 0 0.8-0.1 1.1-0.2 0.3-0.1 0.6-0.4 0.9-0.6 0.3-0.3 0.5-0.6 0.6-0.9 0.1-0.3 0.2-0.7 0.2-1.1C500 44 499.9 43.6 499.8 43.3M499.5 44.4c0 0.3-0.1 0.7-0.2 0.9 -0.1 0.3-0.3 0.5-0.5 0.8 -0.2 0.2-0.4 0.4-0.7 0.5 -0.3 0.1-0.6 0.2-0.9 0.2 -0.3 0-0.6-0.1-0.9-0.2 -0.3-0.1-0.5-0.3-0.7-0.5 -0.2-0.2-0.4-0.5-0.5-0.8 -0.1-0.3-0.2-0.6-0.2-0.9 0-0.3 0.1-0.6 0.2-0.9 0.1-0.3 0.3-0.5 0.5-0.8 0.2-0.2 0.5-0.4 0.7-0.5 0.3-0.1 0.6-0.2 0.9-0.2 0.3 0 0.6 0.1 0.9 0.2 0.3 0.1 0.5 0.3 0.7 0.5 0.2 0.2 0.4 0.5 0.5 0.8C499.4 43.7 499.5 44 499.5 44.4z"/><path fill="#004E7B" d="M498.2 44.3c0.1-0.1 0.2-0.2 0.2-0.3 0.1-0.1 0.1-0.3 0.1-0.4 0-0.3-0.1-0.5-0.3-0.6 -0.2-0.2-0.5-0.2-0.9-0.2H496V46h0.5v-1.4h0.6L498 46l0 0h0.6l-0.9-1.4c0.1 0 0.2 0 0.3-0.1C498 44.5 498.1 44.4 498.2 44.3M498 43.6c0 0.1 0 0.3-0.1 0.3 -0.1 0.1-0.1 0.1-0.3 0.2 -0.1 0-0.4 0-0.7 0h-0.5v-1h0.9c0.1 0 0.2 0 0.3 0 0.1 0 0.2 0 0.2 0.1l0.2 0.1C498 43.4 498 43.5 498 43.6z"/></g></svg>